<svg width="217" height="56" viewBox="0 0 217 56" fill="none" xmlns="http://www.w3.org/2000/svg">
<g clip-path="url(#clip0_551_634)">
<path d="M16.7008 35.8817H11.9273C11.8212 39.545 14.155 42.9863 17.6556 44.2074C19.6711 44.8735 21.6866 44.6515 23.4899 43.8744L16.7008 35.8817Z" fill="white"/>
<path d="M40.3565 30.442L38.2349 27.7778L32.2945 20.8951C32.2945 20.7841 32.0823 20.6731 32.0823 20.6731C31.1276 19.563 31.2337 17.7869 32.2945 16.7878C33.3553 15.7887 35.0525 15.8997 36.0072 17.0098C36.4315 17.5648 36.6437 18.2309 36.6437 18.897H42.2659C42.1598 14.1235 38.5531 10.3492 34.0978 10.2382C33.1431 10.2382 32.0823 10.3492 31.2337 10.6822C30.1729 11.0152 29.2182 11.6813 28.3695 12.4584C24.975 15.6777 24.6568 21.1172 27.7331 24.6695L31.7641 29.4429L35.7951 34.1053C36.7498 35.2154 36.6437 36.9916 35.5829 37.9907C34.5221 38.9898 32.8249 38.8788 31.8702 37.7687L17.4434 20.7841C16.4887 19.674 16.5948 17.8979 17.6556 16.8988C18.7164 15.8997 20.3075 16.0107 21.2623 17.0098C21.3683 13.9015 22.4291 12.0143 23.0656 11.0152C20.2015 9.46109 16.3826 9.79412 13.7306 12.3474C10.3361 15.5667 10.0179 21.0061 13.0942 24.5585L28.0513 41.9871C31.1276 45.5394 36.3255 45.8724 39.72 42.6531C43.1145 39.4338 43.4328 33.9943 40.3565 30.442Z" fill="white"/>
<path d="M16.0645 35.8817H11.2909C11.1849 39.656 13.5186 43.0973 17.1253 44.3184C19.1408 44.9845 21.2624 44.7625 22.9596 43.9854L16.0645 35.8817Z" fill="white"/>
<path d="M62.1025 16.0107C62.1025 16.4547 62.1025 16.7878 62.1025 17.1208C62.9511 16.0107 64.118 15.5666 65.3909 15.5666C66.77 15.5666 67.7247 16.3437 68.4672 17.5648C68.6794 17.2318 68.8916 17.0098 69.1037 16.7878C70.2706 15.5666 71.7557 15.3446 73.3469 15.7887C74.832 16.2327 75.6806 17.3428 75.9989 18.8969C76.1049 19.341 76.1049 19.785 76.1049 20.2291C76.1049 22.5603 76.1049 25.0025 76.1049 27.3337C76.1049 27.4447 76.1049 27.4447 76.1049 27.5557C75.0441 27.5557 73.8773 27.5557 72.8165 27.5557C72.8165 27.4447 72.8165 27.3337 72.8165 27.1117C72.8165 25.2245 72.8165 23.2263 72.8165 21.3392C72.8165 20.7841 72.7104 20.2291 72.6043 19.785C72.4982 19.23 71.9679 18.8969 71.3314 18.8969C70.0584 18.7859 69.422 19.341 69.2098 20.6731C69.2098 20.8951 69.2098 21.0061 69.2098 21.2282C69.2098 23.2263 69.2098 25.2245 69.2098 27.2227C69.2098 27.3337 69.2098 27.4447 69.2098 27.6667C68.149 27.6667 66.9821 27.6667 65.9213 27.6667C65.9213 27.5557 65.9213 27.3337 65.9213 27.2227C65.9213 25.3355 65.9213 23.3373 65.9213 21.4502C65.9213 21.0061 65.9213 20.4511 65.8153 20.007C65.6031 19.341 65.0727 18.8969 64.4362 18.8969C63.4815 18.7859 62.8451 19.119 62.5268 19.896C62.3147 20.3401 62.3147 20.8951 62.3147 21.3392C62.3147 23.3373 62.3147 25.2245 62.3147 27.2227C62.3147 27.3337 62.3147 27.5557 62.3147 27.6667C61.2539 27.6667 60.087 27.6667 59.0262 27.6667C59.0262 23.7814 59.0262 19.896 59.0262 16.0107C59.9809 16.0107 61.0417 16.0107 62.1025 16.0107Z" fill="white"/>
<path d="M56.7987 16.6766C55.5257 16.6766 54.3588 16.6766 53.0859 16.6766C52.9798 16.4546 52.9798 16.1216 52.7677 15.8995C52.4494 15.1225 51.2826 14.9005 50.6461 15.4555C50.2218 15.8995 50.2218 16.8986 50.7522 17.3427C51.1765 17.6757 51.6008 17.8977 52.0251 18.1197C52.9798 18.5638 53.9345 19.0078 54.7832 19.5629C56.5865 20.673 57.1169 22.2271 56.7987 24.1143C56.4804 26.1125 55.3136 27.4446 53.2981 27.7776C51.7069 28.1107 50.1157 28.1107 48.6306 27.3336C46.6151 26.2235 46.1908 24.5583 46.2968 22.7822C46.2968 22.6712 46.4029 22.5602 46.4029 22.5602C47.5698 22.5602 48.7367 22.5602 50.0096 22.5602C50.1157 22.8932 50.1157 23.2262 50.2218 23.5592C50.6461 24.6693 51.2825 24.7804 52.1312 24.5583C52.6616 24.4473 52.8737 24.1143 52.9798 23.5592C53.0859 22.8932 52.9798 22.3381 52.5555 22.0051C52.2373 21.7831 52.0251 21.6721 51.7069 21.4501C50.6461 20.895 49.6914 20.451 48.6306 19.8959C47.5698 19.3409 46.8272 18.4528 46.6151 17.1207C46.2968 15.4555 46.7212 14.1234 47.9941 13.0133C50.0096 11.2371 53.2981 11.1261 55.3136 12.7913C56.3743 14.0124 56.7987 15.2335 56.7987 16.6766Z" fill="white"/>
<path d="M117.37 22.5601C117.582 23.1151 117.688 23.5592 117.9 24.0032C118.218 24.6693 118.855 24.6693 119.491 24.5583C120.022 24.4473 120.34 24.1142 120.446 23.5592C120.552 22.7821 120.446 22.227 119.916 21.894C119.279 21.561 118.537 21.228 117.9 20.8949C117.158 20.4509 116.309 20.1179 115.673 19.6738C113.445 18.1197 113.445 14.7894 115.566 13.0132C117.582 11.3481 120.764 11.237 122.78 12.9022C123.735 13.6793 124.371 15.3444 124.265 16.4545C123.098 16.4545 121.825 16.4545 120.552 16.4545C120.446 16.2325 120.446 15.8995 120.234 15.6775C119.916 15.0114 119.173 14.7894 118.431 15.1224C117.9 15.3444 117.582 16.0105 117.9 16.6765C118.006 16.8986 118.218 17.1206 118.431 17.3426C119.279 17.7866 120.022 18.2307 120.87 18.6747C121.401 19.0078 122.037 19.2298 122.568 19.6738C124.053 20.6729 124.583 22.116 124.371 23.8922C124.159 25.6684 123.31 26.8895 121.825 27.4445C119.81 28.2216 117.794 28.2216 115.885 27.0005C114.294 26.0014 113.869 24.4473 113.869 22.6711C113.869 22.5601 113.975 22.4491 113.975 22.4491C115.036 22.5601 116.203 22.5601 117.37 22.5601Z" fill="white"/>
<path d="M201.278 23.7814C201.385 24.2254 201.491 24.5584 201.703 24.8915C202.021 25.4465 202.445 25.4465 202.976 25.3355C203.4 25.2245 203.612 25.0025 203.718 24.5584C203.824 24.0034 203.718 23.5594 203.294 23.3373C202.764 23.0043 202.233 22.7823 201.703 22.5603C201.172 22.2272 200.536 22.0052 200.006 21.5612C198.308 20.3401 198.308 17.7868 199.899 16.4547C201.491 15.1226 203.93 15.1226 205.416 16.4547C206.158 17.0098 206.688 18.3419 206.476 19.23C205.522 19.23 204.567 19.23 203.718 19.23C203.612 19.0079 203.612 18.7859 203.506 18.6749C203.294 18.1199 202.657 18.0088 202.127 18.2309C201.703 18.4529 201.491 18.8969 201.703 19.452C201.809 19.674 201.915 19.785 202.021 19.896C202.658 20.229 203.294 20.5621 203.93 20.8951C204.355 21.1171 204.779 21.3392 205.203 21.6722C206.37 22.4493 206.795 23.5594 206.582 24.8915C206.476 26.2236 205.734 27.2227 204.567 27.6667C203.082 28.2218 201.491 28.2218 200.006 27.3337C198.839 26.5566 198.414 25.4465 198.414 24.0034C198.414 23.8924 198.52 23.8924 198.52 23.8924C199.581 23.7814 200.43 23.7814 201.278 23.7814Z" fill="white"/>
<path d="M202.551 28.1107C201.703 28.1107 200.748 27.8887 200.006 27.3337C198.839 26.6676 198.308 25.5575 198.414 23.8923C198.414 23.7813 198.52 23.5593 198.732 23.5593C199.475 23.5593 200.218 23.5593 200.96 23.5593H201.491V23.6703C201.491 23.7813 201.597 23.8923 201.597 24.1144C201.703 24.3364 201.703 24.5584 201.915 24.7804C202.127 25.1134 202.445 25.2245 202.976 25.1134C203.294 25.0024 203.506 24.8914 203.612 24.4474C203.718 23.8923 203.612 23.5594 203.294 23.3373C202.976 23.1153 202.657 23.0043 202.339 22.8932C202.127 22.7822 201.915 22.6713 201.703 22.5603C201.597 22.4493 201.491 22.4492 201.278 22.3382C200.854 22.1162 200.324 21.8942 199.899 21.5611C199.051 21.0061 198.626 20.118 198.52 19.0079C198.52 17.8978 198.945 16.8987 199.793 16.2326C201.384 14.9005 203.93 14.9005 205.522 16.2326C206.264 16.8987 206.794 18.1198 206.688 19.1189V19.2299H203.612V19.1189C203.612 19.0079 203.612 19.0079 203.506 18.8969C203.506 18.7859 203.4 18.6749 203.4 18.5638C203.188 18.1198 202.764 18.0088 202.233 18.2308C201.915 18.3418 201.703 18.7859 201.915 19.2299C201.915 19.3409 202.127 19.5629 202.233 19.5629C202.657 19.785 202.976 20.007 203.4 20.229C203.612 20.34 203.824 20.451 204.143 20.562L204.355 20.673C204.673 20.8951 205.097 21.0061 205.415 21.2281C206.582 22.0052 207.007 23.1153 206.901 24.6694C206.794 26.1125 206.052 27.1116 204.779 27.5557C203.93 27.9997 203.188 28.1107 202.551 28.1107ZM198.626 24.0033C198.626 25.4465 199.051 26.5566 200.112 27.1116C201.491 27.8887 202.87 27.9997 204.461 27.4447C205.522 27.0006 206.158 26.1125 206.37 24.8914C206.476 23.5593 206.052 22.5602 205.097 21.7831C204.779 21.5611 204.355 21.3391 204.036 21.2281L203.824 21.1171C203.612 21.0061 203.4 20.8951 203.082 20.784C202.657 20.562 202.233 20.34 201.915 20.118C201.703 20.007 201.597 19.785 201.491 19.5629C201.278 19.0079 201.491 18.3418 202.021 18.1198C202.657 17.8978 203.294 18.1198 203.612 18.6749C203.718 18.7859 203.718 19.0079 203.718 19.1189C203.718 19.1189 203.718 19.1189 203.718 19.23L206.264 19.2299C206.264 18.4528 205.84 17.3427 205.203 16.7877C203.718 15.5666 201.384 15.5666 199.899 16.7877C199.157 17.3427 198.732 18.3418 198.839 19.3409C198.839 20.229 199.263 21.1171 200.006 21.5612C200.43 21.8942 200.854 22.1162 201.278 22.3382C201.384 22.4492 201.491 22.4493 201.703 22.5603C201.915 22.6713 202.127 22.7822 202.339 22.8932C202.657 23.0043 202.976 23.2263 203.294 23.3373C203.612 23.5594 203.93 23.8923 203.824 24.7804C203.718 25.2245 203.4 25.5575 202.976 25.6685C202.763 25.6685 201.915 25.8905 201.597 25.1134C201.491 24.8914 201.384 24.6694 201.278 24.3364C201.278 24.2254 201.172 24.1144 201.172 24.0033H200.854C200.218 24.0033 199.475 24.0033 198.626 24.0033Z" fill="white"/>
<path d="M87.3493 17.2317C87.3493 16.7877 87.3493 16.4547 87.3493 16.0106C88.5162 16.0106 89.577 16.0106 90.6378 16.0106C90.6378 19.896 90.6378 23.7813 90.6378 27.6667C89.577 27.6667 88.5162 27.6667 87.3493 27.6667C87.3493 27.3337 87.3493 26.8896 87.3493 26.4456C87.2433 26.4456 87.2433 26.4456 87.2433 26.4456C86.6068 27.4447 85.6521 27.8887 84.5913 27.9997C82.2575 28.2217 80.242 27.2226 79.1813 25.0024C77.9083 22.4492 78.1205 18.3418 81.1967 16.3436C82.7879 15.3446 84.3791 15.1225 86.0764 16.0106C86.5007 16.2326 86.8189 16.6767 87.2433 17.0097C87.2433 17.1207 87.2433 17.1207 87.3493 17.2317ZM81.7271 21.8942C81.7271 23.5593 83.0001 24.8914 84.4852 24.8914C86.0764 24.8914 87.3493 23.5593 87.3493 21.8942C87.3493 20.118 86.1825 18.8969 84.4852 18.8969C82.894 18.8969 81.7271 20.118 81.7271 21.8942Z" fill="white"/>
<path d="M138.48 21.8938C138.48 25.4461 135.934 27.9994 132.539 28.1104C129.038 28.2214 126.387 25.3351 126.387 21.8938C126.387 18.3415 129.145 15.6772 132.433 15.6772C135.615 15.6772 138.586 18.2305 138.48 21.8938ZM135.191 21.8938C135.191 20.0066 133.6 18.5635 131.903 19.0075C130.842 19.3406 129.993 20.3397 129.887 21.5608C129.781 22.7819 130.311 24.114 131.372 24.5581C133.176 25.4461 135.191 24.003 135.191 21.8938Z" fill="white"/>
<path d="M184.73 21.894C184.73 25.4463 182.184 28.1105 178.683 28.1105C175.183 28.1105 172.743 25.4463 172.637 21.894C172.637 18.3416 175.395 15.5664 178.683 15.6774C182.184 15.6774 184.73 18.2306 184.73 21.894ZM181.441 21.894C181.441 20.0068 179.85 18.5637 178.153 19.0077C177.092 19.3407 176.244 20.2288 176.031 21.5609C175.925 22.782 176.456 24.1142 177.517 24.5582C179.426 25.4463 181.441 24.0032 181.441 21.894Z" fill="white"/>
<path d="M196.611 27.6664C195.55 27.6664 194.489 27.6664 193.322 27.6664C193.322 27.5554 193.322 27.3334 193.322 27.2224C193.322 25.2242 193.322 23.226 193.322 21.2278C193.322 20.7838 193.322 20.3397 193.216 20.0067C193.004 19.3406 192.58 18.8966 191.837 18.8966C191.519 18.8966 191.307 18.8966 190.989 18.8966C190.14 19.1186 189.716 19.6737 189.716 20.7838C189.716 21.2278 189.716 21.6719 189.716 22.1159C189.716 23.8921 189.716 25.5572 189.716 27.3334C189.716 27.4444 189.716 27.5554 189.716 27.7774C188.655 27.7774 187.488 27.7774 186.427 27.7774C186.427 23.8921 186.427 20.0067 186.427 16.1213C187.382 16.1213 188.443 16.1213 189.503 16.1213C189.503 16.4544 189.503 16.8984 189.503 17.2315H189.61C189.716 17.1204 189.716 17.1204 189.822 17.0094C190.458 16.1213 191.201 15.7883 192.262 15.6773C193.322 15.5663 194.383 15.7883 195.232 16.4544C196.293 17.2315 196.717 18.3416 196.823 19.5627C196.717 22.2269 196.611 24.8911 196.611 27.6664C196.611 27.5554 196.611 27.5554 196.611 27.6664Z" fill="white"/>
<path d="M153.437 16.0103C154.603 16.0103 155.664 16.0103 156.725 16.0103C156.725 19.8957 156.725 23.781 156.725 27.6664C155.664 27.6664 154.71 27.6664 153.649 27.6664C153.649 27.3334 153.649 26.8893 153.649 26.4453C153.543 26.5563 153.543 26.5563 153.543 26.5563C153.118 27.4444 152.376 27.8884 151.421 27.9994C150.785 27.9994 150.148 27.9994 149.512 27.8884C147.814 27.5554 146.648 26.0013 146.541 24.2251C146.435 23.004 146.435 21.7829 146.435 20.4507C146.435 19.0076 146.435 17.4535 146.435 16.0103C147.496 16.0103 148.663 16.0103 149.724 16.0103C149.724 16.1214 149.724 16.2324 149.724 16.3434C149.724 18.3416 149.724 20.3397 149.724 22.4489C149.724 22.893 149.83 23.337 149.936 23.781C150.042 24.2251 150.36 24.5581 150.785 24.6691C152.164 25.0022 153.437 24.6691 153.437 22.782C153.543 20.6728 153.437 18.5636 153.437 16.4544C153.437 16.3434 153.437 16.2324 153.437 16.0103Z" fill="white"/>
<path d="M105.595 27.6663C104.428 27.6663 103.367 27.6663 102.307 27.6663C102.307 24.669 102.307 21.6717 102.307 18.6744C101.776 18.6744 101.246 18.6744 100.715 18.6744C100.715 17.7864 100.715 16.8983 100.715 16.0102C101.246 16.0102 101.776 16.0102 102.307 16.0102C102.307 15.8992 102.307 15.6772 102.307 15.5662C102.307 14.4561 102.307 13.457 102.307 12.3469C102.307 12.1248 102.413 12.0138 102.625 12.0138C103.473 12.0138 104.428 12.0138 105.277 12.0138C105.383 12.0138 105.489 12.0138 105.595 12.0138C105.595 13.346 105.595 14.5671 105.595 15.8992C106.125 15.8992 106.656 15.8992 107.186 15.8992C107.186 16.7873 107.186 17.6754 107.186 18.5634C106.762 18.5634 106.338 18.5634 105.913 18.5634C105.595 18.5634 105.489 18.6744 105.489 19.0075C105.489 21.7827 105.489 24.447 105.489 27.2222C105.595 27.3332 105.595 27.4442 105.595 27.6663Z" fill="white"/>
<path d="M163.62 27.6664C162.453 27.6664 161.393 27.6664 160.332 27.6664C160.332 24.6691 160.332 21.6719 160.332 18.6746C159.801 18.6746 159.271 18.6746 158.741 18.6746C158.741 17.7865 158.741 16.8984 158.741 16.0103C159.271 16.0103 159.801 16.0103 160.332 16.0103C160.332 15.7883 160.332 15.6773 160.332 15.5663C160.332 14.5672 160.332 13.4571 160.332 12.458C160.332 12.125 160.438 12.125 160.65 12.125C161.605 12.125 162.559 12.125 163.62 12.125C163.62 13.4571 163.62 14.6782 163.62 16.0103C164.151 16.0103 164.681 16.0103 165.211 16.0103C165.211 16.8984 165.211 17.7865 165.211 18.6746C164.893 18.6746 164.469 18.6746 164.045 18.6746C163.62 18.6746 163.62 18.6746 163.62 19.1186C163.62 21.7829 163.62 24.5581 163.62 27.2224C163.62 27.3334 163.62 27.4444 163.62 27.6664Z" fill="white"/>
<path d="M144.102 27.6664C143.041 27.6664 141.874 27.6664 140.813 27.6664C140.813 22.4489 140.813 17.3425 140.813 12.125C140.919 12.125 141.025 12.125 141.025 12.125C141.98 12.125 142.829 12.125 143.783 12.125C143.996 12.125 144.102 12.236 144.102 12.458C144.102 17.4535 144.102 22.4489 144.102 27.4444C144.102 27.4444 144.102 27.5554 144.102 27.6664Z" fill="white"/>
<path d="M93.2898 16.0106C94.3506 16.0106 95.3053 16.0106 96.3661 16.0106C96.3661 16.3436 96.3661 16.7877 96.3661 17.1207C96.3661 17.1207 96.4722 17.1207 96.4722 17.2317C97.1087 16.1216 97.9573 15.5666 99.2302 15.6776C99.2302 16.7877 99.2302 18.0088 99.2302 19.1189C99.0181 19.1189 98.6998 19.2299 98.3816 19.2299C97.1087 19.3409 96.5783 20.007 96.5783 21.3391C96.5783 23.3373 96.5783 25.3355 96.5783 27.2226C96.5783 27.3336 96.5783 27.5557 96.5783 27.6667C95.5175 27.6667 94.3506 27.6667 93.2898 27.6667C93.2898 23.7813 93.2898 19.896 93.2898 16.0106Z" fill="white"/>
<path d="M167.333 16.0103C168.394 16.0103 169.561 16.0103 170.621 16.0103C170.621 19.8957 170.621 23.781 170.621 27.6664C169.561 27.6664 168.5 27.6664 167.333 27.6664C167.333 23.781 167.333 19.8957 167.333 16.0103Z" fill="white"/>
<path d="M170.621 14.7892C169.561 14.7892 168.5 14.7892 167.333 14.7892C167.333 13.9011 167.333 13.0131 167.333 12.125C167.545 12.125 167.651 12.125 167.863 12.125C168.712 12.125 169.454 12.125 170.303 12.125C170.515 12.125 170.621 12.236 170.621 12.458C170.621 13.1241 170.621 13.7901 170.621 14.4562C170.621 14.5672 170.621 14.6782 170.621 14.7892Z" fill="white"/>
<path d="M164.893 45.9834C164.893 42.8751 164.893 39.8778 164.893 36.7695C165.211 36.7695 165.424 36.7695 165.742 36.7695C165.742 37.1025 165.742 37.4356 165.742 37.8796C166.484 36.8805 167.439 36.4365 168.5 36.5475C169.561 36.6585 170.515 37.1025 171.152 38.1016C172.107 39.5448 171.894 41.654 170.621 42.8751C169.455 43.9852 167.015 44.2072 165.742 42.542C165.742 42.653 165.742 42.7641 165.742 42.8751C165.742 43.7631 165.742 44.6512 165.742 45.5393C165.742 45.6503 165.742 45.8723 165.742 45.9834C165.424 45.9834 165.211 45.9834 164.893 45.9834ZM170.94 40.2108C171.046 38.7677 169.879 37.4356 168.288 37.4356C166.803 37.4356 165.636 38.6567 165.636 40.2108C165.636 41.765 166.803 42.9861 168.182 42.9861C169.879 42.8751 170.94 41.765 170.94 40.2108Z" fill="white"/>
<path d="M85.3339 43.5413C85.0157 43.5413 84.8035 43.5413 84.4853 43.5413C84.4853 43.2083 84.4853 42.8753 84.4853 42.3202C83.7428 43.3193 82.8941 43.7634 81.7272 43.6523C80.6665 43.6523 79.7117 43.0973 79.0753 42.2092C78.0145 40.7661 78.2266 38.5459 79.6057 37.3248C80.7725 36.2147 83.2123 35.9926 84.3792 37.7688C84.3792 36.5477 84.3792 35.4376 84.3792 34.2165C84.6975 34.2165 84.9096 34.2165 85.2279 34.2165C85.3339 37.4358 85.3339 40.433 85.3339 43.5413ZM81.9394 42.8753C83.1063 42.9863 84.5914 41.9872 84.5914 40.1C84.5914 38.5459 83.4245 37.3248 82.0455 37.3248C80.5604 37.3248 79.3935 38.4349 79.3935 40.1C79.2874 41.7652 80.4543 42.8753 81.9394 42.8753Z" fill="white"/>
<path d="M115.46 40.4329C113.551 40.4329 111.536 40.4329 109.626 40.4329C109.52 41.432 110.581 42.7641 111.854 42.8751C112.915 42.9862 113.763 42.5421 114.294 41.432C114.294 41.321 114.4 41.321 114.506 41.321C114.718 41.321 114.93 41.321 115.248 41.321C114.93 42.8752 113.021 43.9853 111.429 43.6522C109.52 43.3192 108.353 41.432 108.777 39.4338C109.096 37.5467 110.899 36.3256 112.808 36.6586C114.4 36.9916 115.673 38.7678 115.46 40.4329ZM114.612 39.6559C114.4 38.1017 113.233 37.2136 111.748 37.4357C110.687 37.5467 109.626 38.6568 109.626 39.6559C111.323 39.6559 112.915 39.6559 114.612 39.6559Z" fill="white"/>
<path d="M103.792 40.433C101.776 40.433 99.8668 40.433 97.9574 40.433C97.9574 41.5431 98.9121 42.6532 100.079 42.8752C101.14 43.0972 102.201 42.5421 102.731 41.5431C102.731 41.432 102.943 41.321 103.049 41.321C103.261 41.321 103.474 41.321 103.686 41.321C103.474 42.7642 101.564 43.9853 99.9729 43.6522C98.2757 43.3192 97.0027 41.6541 97.2149 39.7669C97.427 37.7687 99.1243 36.3256 100.822 36.5476C102.837 36.7696 104.004 38.8788 103.792 40.433ZM102.943 39.6559C102.625 38.1017 101.564 37.2137 100.079 37.4357C98.806 37.5467 97.9574 38.7678 97.9574 39.6559C99.5486 39.6559 101.246 39.6559 102.943 39.6559Z" fill="white"/>
<path d="M179.638 43.5413C179.32 43.5413 179.108 43.5413 178.79 43.5413C178.79 43.2083 178.79 42.8753 178.79 42.5422C177.941 43.6523 176.88 43.8744 175.607 43.6523C174.652 43.5413 173.91 42.9863 173.38 42.2092C172.319 40.7661 172.531 38.5459 173.91 37.3248C175.183 36.2147 177.517 36.1036 178.684 37.7688C178.684 37.3248 178.684 36.9917 178.684 36.6587C179.002 36.6587 179.214 36.6587 179.532 36.6587C179.638 38.9899 179.638 41.3211 179.638 43.5413ZM173.698 40.1C173.592 41.5431 174.759 42.8753 176.35 42.8753C177.835 42.8753 178.896 41.6541 179.002 40.1C179.002 38.5459 177.941 37.3248 176.456 37.3248C174.759 37.4358 173.698 38.5459 173.698 40.1Z" fill="white"/>
<path d="M51.9191 34.3273C52.2373 34.3273 52.4495 34.3273 52.7677 34.3273C52.7677 35.4374 52.7677 36.4365 52.7677 37.5466C53.6164 36.5475 54.5711 36.3255 55.6319 36.6585C56.6927 36.9915 57.5413 37.8796 57.6474 39.1007C57.7534 40.5439 57.6474 41.987 57.7534 43.4301C57.7534 43.4301 57.7534 43.4301 57.7534 43.5411C57.5413 43.5411 57.223 43.5411 56.9048 43.5411C56.9048 43.4301 56.9048 43.3191 56.9048 43.2081C56.9048 42.098 56.9048 40.8769 56.9048 39.7668C56.9048 38.6567 56.3744 37.8796 55.6319 37.5466C54.465 37.1025 53.192 37.7686 52.9799 39.1007C52.8738 39.4338 52.8738 39.8778 52.8738 40.3218C52.8738 41.4319 52.8738 42.431 52.8738 43.5411C52.5556 43.5411 52.3434 43.5411 52.0252 43.5411C51.9191 40.4328 51.9191 37.4356 51.9191 34.3273Z" fill="white"/>
<path d="M71.7559 40.211C72.6045 41.3211 73.5593 42.4312 74.4079 43.5413C73.9836 43.5413 73.7714 43.5413 73.4532 43.5413C73.3471 43.5413 73.241 43.4303 73.1349 43.3192C72.4985 42.5422 71.862 41.7651 71.2255 40.877C70.9073 41.3211 70.589 41.7651 70.2708 42.2091C70.1647 42.3202 70.1647 42.6532 70.1647 42.8752C70.1647 43.0972 70.1647 43.3192 70.1647 43.5413C69.8465 43.5413 69.6343 43.5413 69.3161 43.5413C69.3161 40.544 69.3161 37.4357 69.3161 34.4384C69.5283 34.4384 69.8465 34.4384 70.1647 34.4384C70.1647 36.5476 70.1647 38.6568 70.1647 40.766C70.1647 40.766 70.1647 40.766 70.2708 40.766C70.483 40.544 70.6951 40.211 70.9073 39.9889C71.6498 38.9898 72.2863 38.1018 73.0289 37.1027C73.1349 36.8807 73.3471 36.7696 73.5593 36.7696C73.7714 36.7696 73.9836 36.7696 74.3018 36.7696C73.3471 37.9908 72.6045 39.1009 71.7559 40.211Z" fill="white"/>
<path d="M196.399 43.6521C194.702 43.7631 193.004 42.098 193.004 40.0998C193.004 38.2126 194.595 36.5475 196.399 36.5475C198.414 36.5475 199.899 38.3237 199.793 40.2108C199.793 42.098 198.096 43.8742 196.399 43.6521ZM198.945 40.0998C198.945 38.5457 197.884 37.3246 196.399 37.3246C195.02 37.3246 193.853 38.5457 193.853 40.0998C193.853 41.5429 195.02 42.8751 196.399 42.8751C197.884 42.8751 198.945 41.765 198.945 40.0998Z" fill="white"/>
<path d="M145.481 43.6521C143.784 43.7631 142.086 42.098 142.086 40.0998C142.086 38.2126 143.678 36.5475 145.481 36.5475C147.39 36.5475 148.875 38.2126 148.875 40.2108C148.981 42.098 147.284 43.8742 145.481 43.6521ZM148.133 40.0998C148.239 38.7677 147.072 37.3246 145.587 37.3246C144.208 37.3246 143.041 38.5457 143.041 40.0998C143.041 41.5429 144.208 42.8751 145.587 42.8751C146.966 42.8751 148.133 41.765 148.133 40.0998Z" fill="white"/>
<path d="M201.172 36.7696C201.491 36.7696 201.703 36.7696 202.021 36.7696C202.021 36.9917 202.021 37.2137 202.021 37.4357C202.445 37.2137 202.764 36.8806 203.188 36.7696C204.779 36.2146 206.688 36.9917 206.901 39.3229C206.901 39.5449 206.901 39.6559 206.901 39.8779C206.901 41.099 206.901 42.3201 206.901 43.5413C206.582 43.5413 206.37 43.5413 206.052 43.5413C206.052 43.4302 206.052 43.3192 206.052 43.0972C206.052 41.8761 206.052 40.655 206.052 39.3229C206.052 38.4348 205.628 37.7687 204.779 37.4357C204.036 37.1027 203.294 37.3247 202.657 37.8797C202.233 38.3238 202.127 38.7678 202.127 39.3229C202.127 40.544 202.127 41.7651 202.127 42.9862C202.127 43.0972 202.127 43.2082 202.127 43.4302C201.809 43.4302 201.597 43.4302 201.278 43.4302C201.172 41.321 201.172 39.1008 201.172 36.7696Z" fill="white"/>
<path d="M61.7846 36.7696C62.1028 36.7696 62.315 36.7696 62.6332 36.7696C62.6332 36.9917 62.6332 37.2137 62.6332 37.4357C63.0575 37.2137 63.3758 36.8806 63.8001 36.7696C65.3913 36.2146 67.3007 36.9917 67.5128 39.3229C67.5128 39.5449 67.5128 39.6559 67.5128 39.8779C67.5128 41.099 67.5128 42.3201 67.5128 43.5413C67.1946 43.5413 66.9825 43.5413 66.6642 43.5413C66.6642 43.4302 66.6642 43.3192 66.6642 43.0972C66.6642 41.8761 66.6642 40.655 66.6642 39.3229C66.6642 38.4348 66.2399 37.7687 65.3913 37.4357C64.6487 37.1027 63.9062 37.3247 63.2697 37.8797C62.8454 38.3238 62.7393 38.7678 62.7393 39.3229C62.7393 40.544 62.7393 41.7651 62.7393 42.9862C62.7393 43.0972 62.7393 43.2082 62.7393 43.4302C62.4211 43.4302 62.2089 43.4302 61.8907 43.4302C61.7846 41.321 61.7846 39.1008 61.7846 36.7696Z" fill="white"/>
<path d="M117.688 43.5411C117.37 43.5411 117.158 43.5411 116.839 43.5411C116.839 41.3209 116.839 39.1007 116.839 36.7695C117.158 36.7695 117.37 36.7695 117.688 36.7695C117.688 36.9915 117.688 37.2136 117.688 37.5466C117.794 37.4356 117.9 37.4356 117.9 37.3246C118.537 36.6585 119.279 36.5475 120.022 36.5475C121.931 36.7695 122.568 38.3237 122.568 39.6558C122.568 40.8769 122.568 42.209 122.568 43.5411C122.249 43.5411 122.037 43.5411 121.719 43.5411C121.719 43.4301 121.719 43.3191 121.719 43.0971C121.719 41.876 121.719 40.6549 121.719 39.3227C121.719 38.4347 121.295 37.7686 120.446 37.4356C119.704 37.1025 118.961 37.3246 118.325 37.8796C117.9 38.3237 117.794 38.7677 117.794 39.3227C117.794 40.5439 117.794 41.765 117.794 42.9861C117.688 43.2081 117.688 43.3191 117.688 43.5411Z" fill="white"/>
<path d="M150.36 36.7698C150.573 36.7698 150.891 36.7698 151.209 36.7698C151.209 36.8808 151.209 36.9918 151.209 37.2138C151.209 38.3239 151.209 39.545 151.209 40.6551C151.209 40.9882 151.209 41.2102 151.315 41.5432C151.527 42.6533 152.27 43.0974 153.437 42.9864C154.285 42.8753 155.134 42.0983 155.134 41.0992C155.134 39.8781 155.134 38.657 155.134 37.4358C155.134 37.3248 155.134 37.1028 155.134 36.9918C155.452 36.9918 155.664 36.9918 155.983 36.9918C155.983 39.212 155.983 41.4322 155.983 43.7634C155.77 43.7634 155.452 43.7634 155.24 43.7634C155.24 43.4304 155.24 43.2084 155.24 42.7643C154.816 43.3194 154.391 43.6524 153.861 43.8744C151.952 44.2075 150.466 43.2084 150.466 41.3212C150.254 39.656 150.36 38.2129 150.36 36.7698Z" fill="white"/>
<path d="M180.805 41.5432C181.123 41.5432 181.336 41.5432 181.654 41.5432C181.654 41.7652 181.76 41.9872 181.76 42.0982C181.972 42.6533 182.29 42.8753 182.821 42.8753C183.457 42.8753 183.775 42.6533 183.988 42.2092C184.2 41.6542 184.094 41.0991 183.669 40.7661C183.351 40.5441 183.033 40.4331 182.715 40.322C182.502 40.211 182.29 40.1 182.078 39.989C181.123 39.545 181.017 38.8789 181.123 37.8798C181.23 36.9917 182.078 36.4367 182.927 36.4367C183.775 36.4367 184.518 37.1027 184.624 37.9908C184.624 38.1018 184.624 38.2128 184.624 38.3239C184.518 38.3239 184.412 38.3239 184.306 38.3239C183.988 38.3239 183.775 38.3239 183.669 37.8798C183.563 37.4358 183.245 37.2138 182.715 37.2138C182.29 37.2138 181.972 37.4358 181.866 37.7688C181.76 38.3239 181.866 38.7679 182.29 38.9899C182.715 39.2119 183.139 39.434 183.563 39.545C184.836 40.1 185.048 41.0991 184.624 42.4312C184.518 42.6533 184.412 42.7643 184.306 42.9863C183.881 43.5413 182.715 43.7634 181.866 43.4303C181.123 43.0973 180.593 42.3202 180.699 41.5432C180.805 41.6542 180.805 41.6542 180.805 41.5432Z" fill="white"/>
<path d="M137.631 38.4349C137.525 38.4349 137.419 38.4349 137.313 38.4349C136.995 38.4349 136.782 38.4349 136.782 37.9908C136.676 37.5468 136.358 37.3248 135.828 37.3248C135.297 37.3248 134.979 37.5468 134.979 37.8798C134.873 38.4349 134.979 38.8789 135.403 39.1009C135.828 39.323 136.252 39.545 136.676 39.656C138.055 40.211 138.161 41.4321 137.737 42.5422C137.631 42.7643 137.525 42.8753 137.419 43.0973C136.888 43.6523 135.722 43.7634 134.979 43.4303C134.237 43.0973 133.812 42.3202 133.812 41.4321C133.918 41.4321 134.024 41.4321 134.236 41.4321C134.343 41.4321 134.555 41.4321 134.661 41.4321C134.661 41.6542 134.767 41.8762 134.767 42.0982C134.979 42.6533 135.297 42.8753 135.828 42.8753C136.464 42.8753 136.782 42.6533 136.995 42.2092C137.207 41.6542 137.101 41.0991 136.676 40.7661C136.358 40.5441 136.04 40.4331 135.722 40.322C135.509 40.211 135.297 40.1 135.085 39.989C134.13 39.545 133.918 38.6569 134.236 37.7688C134.449 36.9917 135.403 36.4367 136.252 36.5477C137.101 36.7697 137.631 37.5468 137.631 38.4349Z" fill="white"/>
<path d="M189.398 38.4349C189.185 38.4349 189.079 38.4349 188.973 38.4349C188.655 38.4349 188.549 38.4349 188.443 37.9908C188.337 37.5468 188.019 37.3248 187.594 37.3248C187.064 37.3248 186.746 37.5468 186.64 37.8798C186.533 38.4349 186.64 38.8789 187.064 39.1009C187.488 39.3229 187.912 39.434 188.231 39.656C188.867 39.878 189.398 40.211 189.504 40.9881C189.716 42.2092 189.398 43.3193 188.231 43.5413C186.852 43.8744 185.897 43.3193 185.579 41.9872C185.579 41.8762 185.579 41.6542 185.579 41.4321C185.897 41.4321 186.109 41.4321 186.427 41.4321C186.427 41.6542 186.533 41.8762 186.533 41.9872C186.746 42.5422 187.064 42.7643 187.594 42.7643C188.231 42.7643 188.549 42.5422 188.655 42.0982C188.867 41.5431 188.655 40.9881 188.231 40.6551C187.912 40.433 187.594 40.322 187.276 40.211C187.064 40.1 186.852 40.1 186.64 39.989C185.791 39.545 185.473 38.9899 185.579 37.9908C185.685 37.2137 186.215 36.6587 187.064 36.4367C188.019 36.2147 188.867 36.7697 189.185 37.7688C189.292 38.1018 189.292 38.2128 189.398 38.4349Z" fill="white"/>
<path d="M96.3662 34.9935C94.9872 35.3265 94.669 35.6596 94.7751 36.7697C95.3055 36.7697 95.8359 36.7697 96.3662 36.7697C96.3662 36.9917 96.3662 37.3247 96.3662 37.5467C95.8359 37.5467 95.3055 37.5467 94.669 37.5467C94.669 39.5449 94.669 41.5431 94.669 43.5413C94.3508 43.5413 94.1386 43.5413 93.8204 43.5413C93.8204 41.5431 93.8204 39.5449 93.8204 37.5467C93.5021 37.5467 93.1839 37.5467 92.8656 37.5467C92.8656 37.3247 92.8656 36.9917 92.8656 36.7697C93.1839 36.7697 93.5021 36.7697 93.8204 36.7697C93.8204 34.5495 95.1994 34.1054 96.3662 34.2164C96.3662 34.4385 96.3662 34.7715 96.3662 34.9935Z" fill="white"/>
<path d="M90.8501 43.5413C90.5319 43.5413 90.3197 43.5413 90.0015 43.5413C90.0015 41.5431 90.0015 39.545 90.0015 37.5468C89.6832 37.5468 89.365 37.5468 89.0467 37.5468C89.0467 37.3248 89.0467 36.9917 89.0467 36.7697C89.365 36.7697 89.6832 36.7697 90.0015 36.7697C90.3197 34.7715 91.0623 33.9945 92.5474 34.2165C92.5474 34.3275 92.5474 34.4385 92.5474 34.5495C92.5474 34.6605 92.5474 34.7715 92.5474 34.8825C91.1683 35.2156 90.8501 35.5486 90.8501 36.6587C91.3805 36.6587 91.9109 36.6587 92.4413 36.6587C92.4413 36.8807 92.4413 37.2138 92.4413 37.4358C91.9109 37.4358 91.3805 37.4358 90.744 37.4358C90.744 38.4349 90.744 39.434 90.744 40.433C90.8501 41.5431 90.8501 42.5422 90.8501 43.5413Z" fill="white"/>
<path d="M125.008 37.5466C124.477 37.5466 124.053 37.5466 123.629 37.5466C123.629 37.3246 123.629 37.1025 123.629 36.7695C124.053 36.7695 124.477 36.7695 124.901 36.7695C124.901 35.9924 124.901 35.2154 124.901 34.3273C125.22 34.3273 125.432 34.3273 125.75 34.3273C125.75 35.1044 125.75 35.8814 125.75 36.6585C126.281 36.6585 126.811 36.6585 127.341 36.6585C127.341 36.8805 127.341 37.2136 127.341 37.4356C126.811 37.4356 126.387 37.4356 125.856 37.4356C125.856 39.4338 125.856 41.4319 125.856 43.4301C125.538 43.4301 125.326 43.4301 125.008 43.4301C125.008 41.5429 125.008 39.5448 125.008 37.5466Z" fill="white"/>
<path d="M48.6307 34.3273C48.9489 34.3273 49.1611 34.3273 49.4793 34.3273C49.4793 35.1044 49.4793 35.8814 49.4793 36.7695C50.0097 36.7695 50.5401 36.7695 51.0705 36.7695C51.0705 37.1025 51.0705 37.3246 51.0705 37.5466C50.5401 37.5466 50.1158 37.5466 49.5854 37.5466C49.5854 39.5448 49.5854 41.5429 49.5854 43.5411C49.2672 43.5411 49.055 43.5411 48.7368 43.5411C48.7368 41.5429 48.7368 39.5448 48.7368 37.5466C48.3125 37.5466 47.8881 37.5466 47.3577 37.5466C47.3577 37.3246 47.3577 36.9915 47.3577 36.7695C47.7821 36.7695 48.2064 36.7695 48.7368 36.7695C48.6307 35.9924 48.6307 35.2154 48.6307 34.3273Z" fill="white"/>
<path d="M106.125 43.5411C105.807 43.5411 105.595 43.5411 105.277 43.5411C105.277 41.3209 105.277 39.1007 105.277 36.7695C105.595 36.7695 105.807 36.7695 106.125 36.7695C106.125 36.9915 106.125 37.2136 106.125 37.5466C106.55 36.8805 107.186 36.6585 107.929 36.5475C107.929 36.8805 107.929 37.1025 107.929 37.4356C107.717 37.4356 107.611 37.5466 107.398 37.5466C106.55 37.7686 106.125 38.4347 106.125 39.2117C106.125 40.4328 106.125 41.765 106.125 42.9861C106.125 43.2081 106.125 43.4301 106.125 43.5411Z" fill="white"/>
<path d="M158.635 43.5411C158.316 43.5411 158.104 43.5411 157.786 43.5411C157.786 41.3209 157.786 39.1007 157.786 36.7695C158.104 36.7695 158.316 36.7695 158.635 36.7695C158.635 36.9915 158.635 37.2136 158.635 37.5466C158.953 37.3246 159.165 36.9915 159.483 36.8805C159.802 36.7695 160.12 36.6585 160.544 36.5475C160.544 36.8805 160.544 37.2136 160.544 37.5466C160.332 37.5466 160.226 37.6576 160.014 37.6576C159.165 37.8796 158.741 38.5457 158.635 39.4338C158.635 40.6549 158.635 41.876 158.635 43.2081C158.635 43.2081 158.635 43.4301 158.635 43.5411Z" fill="white"/>
<path d="M87.8799 36.7698C87.8799 38.99 87.8799 41.2102 87.8799 43.5414C87.5617 43.5414 87.3495 43.5414 87.0313 43.5414C87.0313 41.3212 87.0313 39.101 87.0313 36.7698C87.2434 36.7698 87.5617 36.7698 87.8799 36.7698Z" fill="white"/>
<path d="M191.625 43.5414C191.307 43.5414 191.095 43.5414 190.777 43.5414C190.777 41.3212 190.777 39.101 190.777 36.7698C191.095 36.7698 191.307 36.7698 191.625 36.7698C191.625 38.99 191.625 41.3212 191.625 43.5414Z" fill="white"/>
<path d="M60.1933 43.5414C59.8751 43.5414 59.6629 43.5414 59.3447 43.5414C59.3447 41.3212 59.3447 39.101 59.3447 36.7698C59.5568 36.7698 59.8751 36.7698 60.1933 36.7698C60.1933 38.99 60.1933 41.2102 60.1933 43.5414Z" fill="white"/>
<path d="M132.645 43.5414C132.327 43.5414 132.115 43.5414 131.797 43.5414C131.797 41.3212 131.797 39.101 131.797 36.7698C132.009 36.7698 132.327 36.7698 132.645 36.7698C132.645 38.99 132.645 41.2102 132.645 43.5414Z" fill="white"/>
<path d="M132.645 35.8814C132.327 35.8814 132.115 35.8814 131.797 35.8814C131.797 35.3264 131.797 34.8823 131.797 34.3273C132.115 34.3273 132.327 34.3273 132.645 34.3273C132.645 34.8823 132.645 35.3264 132.645 35.8814Z" fill="white"/>
<path d="M59.3447 35.8814C59.3447 35.3264 59.3447 34.8823 59.3447 34.3273C59.6629 34.3273 59.8751 34.3273 60.1933 34.3273C60.1933 34.8823 60.1933 35.3264 60.1933 35.8814C59.8751 35.8814 59.6629 35.8814 59.3447 35.8814Z" fill="white"/>
<path d="M190.777 35.8814C190.777 35.3264 190.777 34.8823 190.777 34.3273C191.095 34.3273 191.307 34.3273 191.625 34.3273C191.625 34.8823 191.625 35.3264 191.625 35.8814C191.307 35.8814 190.989 35.8814 190.777 35.8814Z" fill="white"/>
<path d="M87.8799 35.8814C87.5617 35.8814 87.3495 35.8814 87.0313 35.8814C87.0313 35.3264 87.0313 34.8823 87.0313 34.3273C87.3495 34.3273 87.5617 34.3273 87.8799 34.3273C87.8799 34.8823 87.8799 35.3264 87.8799 35.8814Z" fill="white"/>
</g>
<defs>
<clipPath id="clip0_551_634">
<rect width="196" height="36" fill="white" transform="translate(10.8828 10)"/>
</clipPath>
</defs>
</svg>
